<?xml version="1.0" standalone="no"?>
<!DOCTYPE svg PUBLIC "-//W3C//DTD SVG 20010904//EN"
 "http://www.w3.org/TR/2001/REC-SVG-20010904/DTD/svg10.dtd">
<svg version="1.0" xmlns="http://www.w3.org/2000/svg"
 width="100.000000pt" height="37.000000pt" viewBox="0 0 100.000000 37.000000"
 preserveAspectRatio="xMidYMid meet">
<metadata>
Created by potrace 1.15, written by Peter Selinger 2001-2017
</metadata>
<g transform="translate(0.000000,37.000000) scale(0.100000,-0.100000)"
fill="#000000" stroke="none">
<path d="M162 277 l-92 -93 43 -42 c23 -23 46 -42 49 -42 3 0 21 19 39 43 18
23 24 34 13 24 -20 -16 -21 -16 -37 1 -16 17 -14 21 31 65 l48 47 47 -48 47
-48 -45 -44 c-25 -24 -55 -45 -66 -45 -12 0 -27 -8 -33 -17 -9 -15 -5 -23 19
-48 l30 -30 93 93 92 92 -93 93 -92 92 -93 -93z"/>
<path d="M486 158 c-36 -51 -8 -118 48 -118 19 0 40 8 49 18 21 23 22 86 1
106 -24 24 -80 20 -98 -6z"/>
</g>
</svg>
