<?xml version="1.0" encoding="utf-8"?>
<!-- Generator: Adobe Illustrator 16.0.0, SVG Export Plug-In . SVG Version: 6.00 Build 0)  -->
<!DOCTYPE svg PUBLIC "-//W3C//DTD SVG 1.1//EN" "http://www.w3.org/Graphics/SVG/1.1/DTD/svg11.dtd">
<svg version="1.1" id="Layer_1" xmlns="http://www.w3.org/2000/svg" xmlns:xlink="http://www.w3.org/1999/xlink" x="0px" y="0px"
	 width="202.612px" height="42.845px" viewBox="0 0 202.612 42.845" enable-background="new 0 0 202.612 42.845"
	 xml:space="preserve">
<g>
	
		<circle fill="none" stroke="#309BFA" stroke-width="2" stroke-linecap="round" stroke-linejoin="round" stroke-miterlimit="10" cx="21.942" cy="21.612" r="3.054"/>
	<path fill-rule="evenodd" clip-rule="evenodd" fill="#666666" d="M34.814,18.157c-0.408,0.421-0.853,0.879-1.379,1.421
		c-1.136-1.115-2.261-2.239-3.408-3.34c-3.577-3.432-8.939-4.262-13.338-1.982c-1.05,0.544-2.046,1.275-2.904,2.091
		c-3.68,3.501-7.313,7.052-10.92,10.629C2.48,27.356,2.19,28.022,2.18,28.563c-0.065,3.508-0.043,7.019-0.042,10.528
		c0,1.343,0.28,1.609,1.639,1.606c3.602-0.01,7.205,0.01,10.805-0.062c0.576-0.011,1.263-0.292,1.693-0.679
		c1.512-1.354,2.933-2.811,4.394-4.222c0.72-0.696,1.816-0.694,2.527,0.001c1.475,1.441,2.915,2.922,4.436,4.313
		c0.412,0.377,1.06,0.683,1.606,0.692c3.663,0.065,7.327,0.05,10.99,0.044c1.121-0.002,1.505-0.391,1.509-1.504
		c0.015-3.572,0.04-7.144-0.006-10.715c-0.006-0.488-0.292-1.059-0.622-1.441c-0.738-0.855-1.585-1.616-2.389-2.416
		c0.482-0.515,0.92-0.982,1.461-1.56c1.048,1.069,2.118,2.007,2.979,3.106c0.436,0.557,0.678,1.406,0.689,2.129
		c0.058,3.693,0.036,7.389-0.005,11.082c-0.024,2.118-1.333,3.369-3.436,3.372c-3.787,0.006-7.573-0.013-11.36,0.005
		c-1.117,0.006-2.02-0.385-2.804-1.169c-1.413-1.411-2.854-2.794-4.317-4.222c-1.441,1.396-2.851,2.722-4.212,4.096
		c-0.811,0.818-1.749,1.197-2.889,1.201c-3.756,0.008-7.511,0.051-11.267,0.055c-2.26,0.004-3.552-1.309-3.553-3.553
		C0.005,35.651,0.025,32.05,0,28.447c-0.008-1.121,0.364-2.02,1.165-2.796c3.715-3.599,7.391-7.238,11.124-10.818
		c5.497-5.272,13.838-5.254,19.323,0.021C32.716,15.917,33.749,17.054,34.814,18.157z"/>
	<path fill-rule="evenodd" clip-rule="evenodd" fill="#666666" d="M22.286,5.555c1.311-1.428,2.622-2.855,3.931-4.285
		c0.822-0.898,1.841-1.265,3.052-1.257c3.664,0.024,7.328,0.008,10.992,0.017c2.362,0.006,3.658,1.303,3.659,3.658
		c0.002,3.541-0.017,7.082-0.003,10.623c0.004,1.178-0.393,2.132-1.248,2.957c-3.679,3.548-7.313,7.142-11,10.681
		c-5.614,5.391-13.946,5.348-19.521-0.079c-0.904-0.88-1.761-1.808-2.699-2.774c0.444-0.401,0.934-0.845,1.423-1.287
		c0.068-0.104,0.136-0.207,0.204-0.311c0.858,0.963,1.66,1.982,2.582,2.881c4.819,4.696,11.814,4.672,16.64-0.022
		c3.553-3.456,7.098-6.921,10.671-10.357c0.58-0.558,0.825-1.139,0.817-1.945c-0.034-3.417-0.01-6.835-0.011-10.253
		c0-1.355-0.284-1.658-1.595-1.662c-3.633-0.011-7.267-0.038-10.899,0.01c-0.52,0.007-1.146,0.267-1.534,0.619
		c-1.527,1.385-2.978,2.854-4.458,4.291c-0.796,0.773-1.847,0.763-2.655-0.025c-1.454-1.419-2.876-2.874-4.379-4.239
		c-0.413-0.375-1.061-0.679-1.606-0.688C11.017,2.04,7.383,2.057,3.75,2.061C2.525,2.062,2.185,2.425,2.188,3.682
		c0.005,3.448,0.039,6.897,0.011,10.345c-0.007,0.84,0.227,1.478,0.862,2.024c0.626,0.539,1.197,1.143,1.846,1.77
		c-0.53,0.492-0.998,0.926-1.453,1.348c-0.945-0.897-1.986-1.726-2.804-2.734c-0.398-0.491-0.513-1.317-0.526-1.996
		C0.055,10.775,0.044,7.111,0.042,3.447C0.041,1.324,1.39,0.01,3.522,0.007C7.279,0.003,11.035,0.025,14.792,0
		c1.153-0.008,2.104,0.362,2.885,1.195c1.347,1.435,2.694,2.871,4.041,4.306C21.907,5.519,22.096,5.537,22.286,5.555z"/>
	<path fill-rule="evenodd" clip-rule="evenodd" fill="#666666" d="M115.297,36.584c0.16-0.617,0.296-1.142,0.398-1.534
		c1.823,0.232,3.55,0.607,5.282,0.637c3.267,0.057,5.376-1.92,5.761-5.15c0.031-0.268,0.004-0.542,0.004-0.864
		c-1.289,0.112-2.531,0.282-3.776,0.313c-1.194,0.028-2.42,0.058-3.583-0.167c-3.171-0.608-5.358-3.141-5.548-6.394
		c-0.066-1.151-0.007-2.358,0.268-3.472c0.726-2.947,3.095-4.878,6.279-5.112c2.862-0.21,5.704,0.101,8.539,0.75
		c0.021,0.208,0.053,0.388,0.053,0.567c0,4.618,0.049,9.238-0.02,13.855c-0.068,4.635-3.154,7.605-7.8,7.674
		C119.159,37.716,117.249,37.35,115.297,36.584z M126.78,27.937c0-3.686,0.009-7.039-0.023-10.392
		c-0.002-0.19-0.328-0.523-0.527-0.542c-1.592-0.153-3.19-0.355-4.784-0.334c-2.958,0.038-4.815,1.583-5.34,4.372
		c-0.156,0.833-0.159,1.727-0.062,2.572c0.265,2.297,2.022,4.234,4.305,4.415C122.444,28.193,124.569,27.983,126.78,27.937z"/>
	<path fill-rule="evenodd" clip-rule="evenodd" fill="#666666" d="M142.422,7.463c0.663,0,1.322,0,2.104,0c0,2.636,0,5.232,0,7.895
		c1.123-0.167,2.114-0.408,3.113-0.443c1.437-0.051,2.906-0.121,4.313,0.114c3.274,0.547,5.471,3.225,5.602,6.724
		c0.041,1.091-0.057,2.225-0.321,3.283c-0.773,3.086-3.204,5.154-6.38,5.18c-2.631,0.02-5.267-0.315-7.896-0.547
		c-0.229-0.02-0.608-0.438-0.609-0.672c-0.03-7.078-0.021-14.155-0.016-21.233C142.331,7.679,142.381,7.594,142.422,7.463z
		 M144.589,28.192c2.001,0.094,3.869,0.301,5.729,0.236c2.249-0.08,3.979-1.194,4.653-3.408c0.349-1.143,0.481-2.436,0.354-3.622
		c-0.299-2.791-1.925-4.434-4.741-4.627c-1.779-0.123-3.592,0.238-5.39,0.387c-0.521,0.043-0.617,0.381-0.611,0.84
		c0.018,1.383,0.006,2.767,0.006,4.151C144.589,24.081,144.589,26.014,144.589,28.192z"/>
	<path fill-rule="evenodd" clip-rule="evenodd" fill="#666666" d="M201.232,27.585c0.13,0.594,0.239,1.098,0.388,1.78
		c-1.273,0.281-2.506,0.708-3.761,0.791c-1.579,0.104-3.23,0.167-4.757-0.173c-3.783-0.842-5.983-4.443-5.483-8.444
		c0.822-6.591,7.396-7.854,11.319-5.967c2.572,1.237,4.232,4.733,3.5,7.392c-0.058,0.205-0.544,0.414-0.833,0.416
		c-3.416,0.029-6.831,0.02-10.248,0.02c-0.426,0-0.852,0-1.275,0c-0.032,2.447,1.988,4.721,4.566,4.844
		c1.817,0.088,3.655-0.258,5.483-0.425C200.463,27.788,200.786,27.682,201.232,27.585z M200.455,21.612
		c0.026-3.107-2.093-5.087-5.29-5.03c-2.958,0.052-5.291,2.299-5.166,5.03C193.46,21.612,196.923,21.612,200.455,21.612z"/>
	<path fill-rule="evenodd" clip-rule="evenodd" fill="#666666" d="M184.006,23.396c-4.223,0-8.302,0-12.379,0
		c-0.034,2.461,1.985,4.726,4.575,4.849c1.816,0.087,3.654-0.261,5.481-0.43c0.33-0.03,0.653-0.136,1.087-0.229
		c0.123,0.559,0.237,1.081,0.392,1.78c-1.289,0.284-2.522,0.711-3.778,0.793c-1.578,0.104-3.229,0.162-4.756-0.181
		c-3.727-0.838-5.905-4.343-5.485-8.268c0.709-6.626,7.147-7.987,11.09-6.246c2.328,1.028,3.497,2.92,3.761,5.393
		C184.077,21.644,184.006,22.446,184.006,23.396z M182.021,21.608c-0.064-1.859-0.658-3.395-2.276-4.305
		c-1.982-1.115-4.033-1.035-5.963,0.14c-1.513,0.922-2.177,2.39-2.316,4.165C175.029,21.608,178.491,21.608,182.021,21.608z"/>
	<path fill-rule="evenodd" clip-rule="evenodd" fill="#666666" d="M87.542,29.877c-0.055-0.442-0.096-0.769-0.136-1.093
		c-1.106,0.438-2.146,0.994-3.256,1.266c-6.052,1.486-10.706-2.965-9.591-9.12c0.695-3.841,3.35-6.169,7.249-6.106
		c2.325,0.038,4.646,0.392,6.969,0.583c0.732,0.06,0.929,0.4,0.922,1.126c-0.037,4.09-0.037,8.181-0.002,12.271
		c0.008,0.814-0.173,1.223-1.062,1.082C88.309,29.833,87.967,29.877,87.542,29.877z M87.461,21.932c0-1.384,0.027-2.769-0.022-4.151
		c-0.01-0.271-0.295-0.746-0.488-0.764c-1.71-0.165-3.436-0.396-5.143-0.32c-2.645,0.118-4.349,1.508-4.902,3.841
		c-0.217,0.912-0.279,1.893-0.22,2.83c0.17,2.664,1.818,4.546,4.359,5.002c2.238,0.402,4.255-0.291,6.111-1.494
		c0.192-0.125,0.286-0.521,0.292-0.793C87.477,24.7,87.461,23.315,87.461,21.932z"/>
	<path fill-rule="evenodd" clip-rule="evenodd" fill="#666666" d="M109.523,29.839c-0.734,0-1.371,0-2.154,0
		c0-0.343,0-0.666,0-0.989c-0.001-2.493,0.01-4.987-0.004-7.48c-0.016-3.044-1.587-4.625-4.631-4.572
		c-1.711,0.03-3.419,0.199-5.197,0.31c0,4.307,0,8.453,0,12.683c-0.76,0-1.439,0-2.178,0c0-4.717,0-9.414,0-14.331
		c2.145-0.214,4.297-0.478,6.458-0.625c1.065-0.072,2.163-0.038,3.214,0.137c2.61,0.435,4.349,2.243,4.459,4.897
		C109.628,23.153,109.523,26.448,109.523,29.839z"/>
	<path fill-rule="evenodd" clip-rule="evenodd" fill="#666666" d="M71.685,28.176c0.1,0.556,0.194,1.087,0.312,1.744
		c-2.194,0.442-4.348,0.84-6.386-0.325c-1.633-0.934-1.963-2.614-2.009-4.315c-0.063-2.308-0.02-4.618-0.021-6.927
		c0-0.334,0-0.67,0-1.127c-1.158,0-2.248,0-3.393,0c0-0.692,0-1.262,0-1.931c1.116,0,2.18,0,3.35,0c0-2.078,0-4.06,0-6.11
		c0.766,0,1.427,0,2.193,0c0,1.987,0,3.971,0,6.051c1.814,0,3.527,0,5.312,0c0,0.665,0,1.233,0,1.938c-1.691,0-3.423,0-5.279,0
		c0,0.613-0.007,1.093,0.001,1.573c0.044,2.398-0.001,4.803,0.173,7.192c0.115,1.571,0.979,2.249,2.551,2.394
		c0.517,0.049,1.044,0.006,1.565-0.02C70.544,28.288,71.033,28.231,71.685,28.176z"/>
	<path fill-rule="evenodd" clip-rule="evenodd" fill="#666666" d="M162.312,7.462c0.7,0,1.36,0,2.077,0c0,7.46,0,14.884,0,22.361
		c-0.701,0-1.36,0-2.077,0C162.312,22.36,162.312,14.937,162.312,7.462z"/>
	<path fill-rule="evenodd" clip-rule="evenodd" fill="#666666" d="M136.472,29.837c-0.699,0-1.336,0-2.049,0
		c0-4.822,0-9.631,0-14.501c0.674,0,1.333,0,2.049,0C136.472,20.154,136.472,24.944,136.472,29.837z"/>
	<path fill-rule="evenodd" clip-rule="evenodd" fill="#666666" d="M133.822,9.971c0.003-0.866,0.694-1.537,1.596-1.549
		c0.939-0.012,1.666,0.692,1.643,1.592c-0.023,0.866-0.729,1.511-1.639,1.5C134.517,11.502,133.818,10.828,133.822,9.971z"/>
</g>
</svg>
